{
  "accessors": [
    {
      "bufferView": 2,
      "componentType": 5126,
      "count": 2,
      "max": [
        113.63050079345703,
        13.369649887084961,
        0.0
      ],
      "min": [
        113.6281967163086,
        13.365019798278809,
        0.0
      ],
      "type": "VEC3"
    },
    {
      "bufferView": 0,
      "componentType": 5125,
      "count": 2,
      "type": "SCALAR"
    },
    {
      "bufferView": 2,
      "byteOffset": 24,
      "componentType": 5126,
      "count": 8922,
      "max": [
        192.77699279785156,
        195.68679809570313,
        0.0
      ],
      "min": [
        56.01845932006836,
        0.9852803945541382,
        -1.0
      ],
      "type": "VEC3"
    },
    {
      "bufferView": 2,
      "byteOffset": 107088,
      "componentType": 5126,
      "count": 8922,
      "max": [
        1.0,
        1.0,
        1.0
      ],
      "min": [
        -1.0,
        -1.0,
        -1.0
      ],
      "type": "VEC3"
    },
    {
      "bufferView": 1,
      "componentType": 5126,
      "count": 8922,
      "max": [
        2.2421278953552246,
        2.8170039653778076
      ],
      "min": [
        -2.243403911590576,
        -0.014395469799637794
      ],
      "type": "VEC2"
    },
    {
      "bufferView": 0,
      "byteOffset": 8,
      "componentType": 5125,
      "count": 16368,
      "type": "SCALAR"
    },
    {
      "bufferView": 2,
      "byteOffset": 214152,
      "componentType": 5126,
      "count": 13626,
      "max": [
        195.74009704589844,
        196.31129455566406,
        0.0
      ],
      "min": [
        51.720001220703125,
        0.0,
        -2.0
      ],
      "type": "VEC3"
    },
    {
      "bufferView": 2,
      "byteOffset": 377664,
      "componentType": 5126,
      "count": 13626,
      "max": [
        1.0,
        1.0,
        1.0
      ],
      "min": [
        -1.0,
        -1.0,
        -1.0
      ],
      "type": "VEC3"
    },
    {
      "bufferView": 1,
      "byteOffset": 71376,
      "componentType": 5126,
      "count": 13626,
      "max": [
        2.520390033721924,
        2.8259940147399902
      ],
      "min": [
        -2.2445359230041504,
        -0.028790950775146484
      ],
      "type": "VEC2"
    },
    {
      "bufferView": 0,
      "byteOffset": 65480,
      "componentType": 5125,
      "count": 31434,
      "type": "SCALAR"
    },
    {
      "bufferView": 2,
      "byteOffset": 541176,
      "componentType": 5126,
      "count": 1430,
      "max": [
        144.8065948486328,
        145.2993927001953,
        0.0
      ],
      "min": [
        68.28228759765625,
        66.53653717041016,
        -1.0
      ],
      "type": "VEC3"
    },
    {
      "bufferView": 2,
      "byteOffset": 558336,
      "componentType": 5126,
      "count": 1430,
      "max": [
        1.0,
        1.0,
        1.0
      ],
      "min": [
        -1.0,
        -1.0,
        -1.0
      ],
      "type": "VEC3"
    },
    {
      "bufferView": 1,
      "byteOffset": 180384,
      "componentType": 5126,
      "count": 1430,
      "max": [
        1.7882640361785889,
        2.0916531085968018
      ],
      "min": [
        -1.802394986152649,
        -0.014395469799637794
      ],
      "type": "VEC2"
    },
    {
      "bufferView": 0,
      "byteOffset": 191216,
      "componentType": 5125,
      "count": 2418,
      "type": "SCALAR"
    }
  ],
  "asset": {
    "extras": {
      "author": "cscartdept (https://sketchfab.com/cscartdept)",
      "license": "CC-BY-4.0 (http://creativecommons.org/licenses/by/4.0/)",
      "source": "https://sketchfab.com/3d-models/9141-spec2-circuit-pattern-sample2-2b50158fc02645bd9d97d164a7883989",
      "title": "9141 Spec2 Circuit Pattern Sample2"
    },
    "generator": "Sketchfab-12.65.0",
    "version": "2.0"
  },
  "bufferViews": [
    {
      "buffer": 0,
      "byteLength": 200888,
      "name": "floatBufferViews",
      "target": 34963
    },
    {
      "buffer": 0,
      "byteLength": 191824,
      "byteOffset": 200888,
      "byteStride": 8,
      "name": "floatBufferViews",
      "target": 34962
    },
    {
      "buffer": 0,
      "byteLength": 575496,
      "byteOffset": 392712,
      "byteStride": 12,
      "name": "floatBufferViews",
      "target": 34962
    }
  ],
  "buffers": [
    {
      "byteLength": 968208,
      "uri": "scene.bin"
    }
  ],
  "images": [
    {
      "uri": "textures/Color_002_baseColor.jpeg"
    }
  ],
  "materials": [
    {
      "name": "Color_002",
      "pbrMetallicRoughness": {
        "baseColorTexture": {
          "index": 0
        },
        "metallicFactor": 0.0,
        "roughnessFactor": 0.6
      }
    },
    {
      "name": "edge_color191191190255",
      "pbrMetallicRoughness": {
        "metallicFactor": 0.0,
        "roughnessFactor": 0.6
      }
    }
  ],
  "meshes": [
    {
      "name": "Material2",
      "primitives": [
        {
          "attributes": {
            "POSITION": 0
          },
          "indices": 1,
          "material": 1,
          "mode": 1
        }
      ]
    },
    {
      "name": "Material2",
      "primitives": [
        {
          "attributes": {
            "NORMAL": 3,
            "POSITION": 2,
            "TEXCOORD_0": 4
          },
          "indices": 5,
          "material": 0,
          "mode": 4
        }
      ]
    },
    {
      "name": "Material2",
      "primitives": [
        {
          "attributes": {
            "NORMAL": 7,
            "POSITION": 6,
            "TEXCOORD_0": 8
          },
          "indices": 9,
          "material": 0,
          "mode": 4
        }
      ]
    },
    {
      "name": "Material2",
      "primitives": [
        {
          "attributes": {
            "NORMAL": 11,
            "POSITION": 10,
            "TEXCOORD_0": 12
          },
          "indices": 13,
          "material": 0,
          "mode": 4
        }
      ]
    }
  ],
  "nodes": [
    {
      "children": [
        1
      ],
      "matrix": [
        1.0,
        0.0,
        0.0,
        0.0,
        0.0,
        2.220446049250313e-16,
        -1.0,
        0.0,
        0.0,
        1.0,
        2.220446049250313e-16,
        0.0,
        0.0,
        0.0,
        0.0,
        1.0
      ],
      "name": "Sketchfab_model"
    },
    {
      "children": [
        2
      ],
      "name": "Collada visual scene group"
    },
    {
      "children": [
        3,
        4,
        5,
        6
      ],
      "name": "SketchUp"
    },
    {
      "mesh": 0,
      "name": "Material2"
    },
    {
      "mesh": 1,
      "name": "Material2"
    },
    {
      "mesh": 2,
      "name": "Material2"
    },
    {
      "mesh": 3,
      "name": "Material2"
    }
  ],
  "samplers": [
    {
      "magFilter": 9729,
      "minFilter": 9987,
      "wrapS": 10497,
      "wrapT": 10497
    }
  ],
  "scene": 0,
  "scenes": [
    {
      "name": "Sketchfab_Scene",
      "nodes": [
        0
      ]
    }
  ],
  "textures": [
    {
      "sampler": 0,
      "source": 0
    }
  ]
}
